{"title":"Rocky III (1982) [miniHD.1080p.AC3] [Lektor PL]","uid":10002332,"size":1924683810,"categoryP":"video","categoryS":"hd___movies","magnet":"?xt=urn:btih:6cec2a711cbeb411a570a9d4f1d5b098084fad01&amp;dn=Rocky+III+%281982%29+%5BminiHD.1080p.AC3%5D+%5BLektor+PL%5D&amp;tr=udp%3A%2F%2Ftracker.openbittorrent.com%3A80&amp;tr=udp%3A%2F%2Fopen.demonii.com%3A1337&amp;tr=udp%3A%2F%2Ftracker.coppersurfer.tk%3A6969&amp;tr=udp%3A%2F%2Fexodus.desync.com%3A6969","seeders":1,"leechers":0,"uploader":"gixer1000k9","files":-1,"time":1397954503,"description":"Rocky III (1982)\n\ngatunek:\tDramat, Sportowy\nprodukcja:\tUSA\npremiera:\t28 maja 1982  (Å›wiat) \nreÅ¼yseria:\tSylvester Stallone\nscenariusz:\tSylvester Stallone\n\nObsada:\n\nSylvester Stallone - Rocky Balboa\t  \nTalia Shire - Adrian\t\nBurt Young - Paulie\t\nCarl Weathers - Apollo Creed\t\nBurgess Meredith - Mickey Goldmill\t\nTony Burton - Duke\t\nMr. T - Clubber Lang\t  \nHulk Hogan - Thunderclips\n\nPo wygranej z Apollo Creedem (Carl Weathers), Rocky (Sylvester Stallone) jest okrzykniÄ™ty mistrzem i wszystko ukÅ‚ada siÄ™ po jego myÅ›li. SpÄ™dza wiÄ™cej czasu z rodzinÄ…, zaprzyjaÅºnia siÄ™ nawet z Creedem. Jednak w pewnym pojedynku z aroganckim Clubberem Langiem (Mr. T), zostaje pokonany i caÅ‚y czar pryska. Poza najbliÅ¼szÄ… rodzinÄ…, jedynie Apollo Creed nie pozostawia Rocky'ego i pomaga mu stanÄ…Ä‡ na nogi oraz doprowadza do rewanÅ¼u z Langiem...\n\n &lt;a href=&quot;\nhttp://i.imgur.com/384p5fp.jpg&quot; rel=&quot;nofollow&quot; target=&quot;_NEW&quot;&gt;\nhttp://i.imgur.com/384p5fp.jpg&lt;/a&gt;\n &lt;a href=&quot;\nhttp://i.imgur.com/fJXnwxL.jpg&quot; rel=&quot;nofollow&quot; target=&quot;_NEW&quot;&gt;\nhttp://i.imgur.com/fJXnwxL.jpg&lt;/a&gt;\n &lt;a href=&quot;\nhttp://i.imgur.com/CHUSriR.jpg&quot; rel=&quot;nofollow&quot; target=&quot;_NEW&quot;&gt;\nhttp://i.imgur.com/CHUSriR.jpg&lt;/a&gt;\n &lt;a href=&quot;\nhttp://i.imgur.com/n9OBvNn.jpg&quot; rel=&quot;nofollow&quot; target=&quot;_NEW&quot;&gt;\nhttp://i.imgur.com/n9OBvNn.jpg&lt;/a&gt;\n &lt;a href=&quot;\nhttp://i.imgur.com/9UQArjt.jpg&quot; rel=&quot;nofollow&quot; target=&quot;_NEW&quot;&gt;\nhttp://i.imgur.com/9UQArjt.jpg&lt;/a&gt;\n\n\nDane Techniczne:\n\nFormat                                   : MPEG-4\nFormat profile                           : Base Media\nCodec ID                                 : isom\nFile size                                : 1.79 GiB\nDuration                                 : 1h 39mn\nOverall bit rate                         : 2 576 Kbps\nMovie name                               : Rocky III (1982) (miniHD-gixerk9)\nWriting application                      : Lavf55.37.100\n\nVideo\nID                                       : 1\nFormat                                   : AVC\nFormat/Info                              : Advanced Video Codec\nFormat profile                           : &lt;a class=&quot;__cf_email__&quot; href=&quot;/cdn-cgi/l/email-protection&quot; data-cfemail=&quot;f8b0919f90b8b4ccd6c9&quot;&gt;[email&amp;#160;protected]&lt;/a&gt;&lt;script cf-hash='f9e31' type=&quot;text/javascript&quot;&gt;\n/* &lt;![CDATA[ */!function(){try{var t=&quot;currentScript&quot;in document?document.currentScript:function(){for(var t=document.getElementsByTagName(&quot;script&quot;),e=t.length;e--;)if(t[e].getAttribute(&quot;cf-hash&quot;))return t[e]}();if(t&amp;&amp;t.previousSibling){var e,r,n,i,c=t.previousSibling,a=c.getAttribute(&quot;data-cfemail&quot;);if(a){for(e=&quot;&quot;,r=parseInt(a.substr(0,2),16),n=2;a.length-n;n+=2)i=parseInt(a.substr(n,2),16)^r,e+=String.fromCharCode(i);e=document.createTextNode(e),c.parentNode.replaceChild(e,c)}}}catch(u){}}();/* ]]&gt; */&lt;/script&gt;\nFormat settings, CABAC                   : Yes\nFormat settings, ReFrames                : 2 frames\nCodec ID                                 : avc1\nCodec ID/Info                            : Advanced Video Coding\nDuration                                 : 1h 39mn\nBit rate                                 : 2 187 Kbps\nWidth                                    : 1 920 pixels\nHeight                                   : 1 040 pixels\nDisplay aspect ratio                     : 1.85:1\nFrame rate mode                          : Constant\nFrame rate                               : 23.976 fps\nColor space                              : YUV\nChroma subsampling                       : 4:2:0\nBit depth                                : 8 bits\nScan type                                : Progressive\nBits/(Pixel*Frame)                       : 0.046\nStream size                              : 1.52 GiB (85%)\nWriting library                          : x264 core 142 r2409\nColor primaries                          : BT.709\nTransfer characteristics                 : BT.709\nMatrix coefficients                      : BT.709\n\nAudio\nID                                       : 2\nFormat                                   : AC-3\nFormat/Info                              : Audio Coding 3\nMode extension                           : CM (complete main)\nFormat settings, Endianness              : Big\nCodec ID                                 : ac-3\nDuration                                 : 1h 39mn\nBit rate mode                            : Constant\nBit rate                                 : 384 Kbps\nChannel(s)                               : 6 channels\nChannel positions                        : Front: L C R, Side: L R, LFE\nSampling rate                            : 48.0 KHz\nBit depth                                : 16 bits\nCompression mode                         : Lossy\nStream size                              : 274 MiB (15%)\nLanguage                                 : Polish\n\nSource:\n\nA/V: Rocky III (1982) BDRemux-gixerk9","torrent":{"xt":"urn:btih:6cec2a711cbeb411a570a9d4f1d5b098084fad01","amp;dn":"Rocky+III+%281982%29+%5BminiHD.1080p.AC3%5D+%5BLektor+PL%5D","amp;tr":["udp%3A%2F%2Ftracker.openbittorrent.com%3A80","udp%3A%2F%2Fopen.demonii.com%3A1337","udp%3A%2F%2Ftracker.coppersurfer.tk%3A6969","udp%3A%2F%2Fexodus.desync.com%3A6969"],"infoHash":"6cec2a711cbeb411a570a9d4f1d5b098084fad01","infoHashBuffer":{"type":"Buffer","data":[108,236,42,113,28,190,180,17,165,112,169,212,241,213,176,152,8,79,173,1]},"announce":[],"urlList":[]}}